<svg width="1233" height="892" viewBox="0 0 1233 892" fill="none" xmlns="http://www.w3.org/2000/svg">
<g clip-path="url(#clip0_105_131)">
<path d="M574.74 593.059C562.388 570.645 556.141 537.2 556.141 493.648C556.141 488.754 556.212 484.002 556.389 479.356C576.337 473.078 597.599 469.709 619.642 469.709C641.684 469.709 660.994 472.794 680.197 478.54C680.339 483.434 680.445 488.47 680.445 493.648C680.445 537.165 674.092 570.574 661.562 593.059C651.091 612.104 637.354 620.971 618.293 620.971C599.232 620.971 585.353 612.069 574.74 593.059Z" fill="#9A7A3F"/>
<path d="M789.879 555.749C783.17 597.279 769.185 631.504 747.959 658.351C717.113 697.541 673.88 717.154 618.294 717.154C562.709 717.154 519.333 697.541 488.346 658.351C467.759 632.142 454.022 598.946 447.207 558.763C469.569 527.341 500.272 502.302 536.123 486.874C536.052 489.108 536.052 491.378 536.052 493.648C536.052 540.853 543.08 577.206 557.136 602.776C571.405 628.312 591.779 641.079 618.33 641.079C644.88 641.079 665.184 628.312 679.24 602.776C693.473 577.206 700.608 540.853 700.608 493.648C700.608 490.988 700.572 488.328 700.537 485.739C736.387 500.564 767.268 524.964 789.95 555.749H789.879Z" fill="#9A7A3F"/>
<path d="M825.87 634.66H815.789V602.209C820.013 612.636 823.385 623.488 825.87 634.66Z" fill="#9A7A3F"/>
<path d="M830.943 680.837C830.943 797.449 736.348 891.965 619.639 891.965C502.931 891.965 408.336 797.413 408.336 680.837C408.336 672.006 408.868 663.282 409.969 654.699H422.818V603.841C425.516 596.996 428.533 590.293 431.905 583.803C440.246 617.885 453.805 646.967 472.547 670.765C507.439 714.849 556.493 737.192 618.291 737.192C680.088 737.192 729.107 714.849 763.75 670.765C776.955 654.096 787.603 634.838 795.661 613.062V654.699H829.31C830.41 663.282 830.943 672.006 830.943 680.837Z" fill="#9A7A3F"/>
<path d="M178.188 540.818L242.008 439.918V540.818H178.188Z" fill="#92C0C8"/>
<path d="M233.168 275.463L76.5273 522.269C91.4709 535.427 108.083 546.28 126.079 554.543C144.678 563.09 164.698 568.836 185.604 571.531C194.656 572.702 203.849 573.269 213.184 573.269C264.581 573.269 311.755 555.359 348.528 523.298V275.463H233.168ZM262.132 560.927H143.862V557.416L258.618 376.079H262.132V560.927Z" fill="#92C0C8"/>
<path d="M368.654 503.224V255.354H222.129L61.9035 507.906C46.5695 491.414 33.6492 472.086 23.5685 450.345C23.3556 449.884 23.1781 449.423 22.9651 448.926C20.5159 443.571 18.2442 438.038 16.1855 432.399C5.78539 404.062 0.0351562 372.107 0.0351562 337.28C0.0351562 256.844 53.3136 181.763 108.047 126.897C108.083 126.826 108.083 126.755 108.154 126.755C150.109 84.6573 192.917 54.4759 213.22 42.9141C252.229 66.8889 426.334 195.169 426.334 337.28C426.334 405.303 404.469 462.332 368.689 503.189L368.654 503.224Z" fill="#92C0C8"/>
<path d="M368.655 540.818V503.224C362.372 510.459 355.628 517.162 348.529 523.298V275.463H233.169L76.5287 522.269C71.4174 517.765 66.5191 512.977 61.8692 507.906L30.9883 556.565V654.734H240.269V731.376H368.62V654.734H409.936C412.101 637.001 416.467 619.978 422.785 603.876V540.818H368.62H368.655ZM143.899 557.416L258.655 376.079H262.169V560.927H143.899V557.416Z" fill="black"/>
<path d="M348.529 560.927V275.463H233.169L76.5282 522.269L51.0781 562.381V634.66H260.394V711.302H348.529V634.66H402.694V560.927H348.529ZM143.898 557.416L258.655 376.079H262.169V560.927H143.898V557.416Z" fill="black"/>
<path d="M763.788 316.249C728.861 271.952 679.913 249.502 618.293 249.502C556.673 249.502 507.69 271.952 472.834 316.249C439.078 359.091 421.969 418.78 421.969 493.648C421.969 526.738 425.305 556.884 431.907 583.838C436.451 575.113 441.562 566.743 447.206 558.764C454.021 598.946 467.758 632.142 488.345 658.352C519.368 697.541 562.708 717.154 618.293 717.154C673.879 717.154 717.148 697.541 747.958 658.352C769.184 631.504 783.169 597.279 789.877 555.749C791.865 558.48 793.817 561.211 795.663 564.048C799.177 569.261 802.443 574.652 805.46 580.22C809.258 564.154 811.849 547.024 813.269 528.795C814.156 517.481 814.618 505.778 814.618 493.648C814.618 418.745 797.509 359.091 763.788 316.249ZM679.168 602.777C665.112 628.312 644.808 641.08 618.258 641.08C591.707 641.08 571.333 628.312 557.064 602.777C543.008 577.206 535.98 540.853 535.98 493.648C535.98 491.379 535.98 489.109 536.051 486.874C542.653 484.002 549.397 481.484 556.354 479.356C557.596 442.72 563.879 414.028 574.989 393.919C585.673 374.483 599.41 365.44 618.258 365.44C637.106 365.44 651.02 374.377 661.562 393.67C672.566 413.602 678.813 442.117 680.162 478.54C687.083 480.562 693.863 482.973 700.465 485.74C700.5 488.329 700.536 490.989 700.536 493.648C700.536 540.853 693.401 577.206 679.168 602.777Z" fill="black"/>
<path d="M747.957 328.697C716.934 289.295 673.701 269.611 618.292 269.611C562.884 269.611 519.615 289.295 488.628 328.697C457.605 368.1 442.094 423.072 442.094 493.649C442.094 517.092 443.798 538.797 447.205 558.764C454.02 598.947 467.757 632.143 488.344 658.352C519.367 697.542 562.707 717.154 618.292 717.154C673.878 717.154 717.147 697.542 747.957 658.352C769.183 631.504 783.168 597.28 789.877 555.749C792.965 536.598 794.491 515.886 794.491 493.649C794.491 423.036 778.98 368.064 747.957 328.697ZM679.167 602.777C665.111 628.312 644.807 641.08 618.257 641.08C591.706 641.08 571.332 628.312 557.063 602.777C543.007 577.206 535.979 540.854 535.979 493.649C535.979 491.379 535.979 489.109 536.05 486.875C536.689 442.933 543.788 408.744 557.347 384.237C571.616 358.311 591.919 345.331 618.257 345.331C644.594 345.331 665.111 358.205 679.167 383.953C692.584 408.247 699.719 442.188 700.464 485.74C700.499 488.329 700.535 490.989 700.535 493.649C700.535 540.854 693.4 577.206 679.167 602.777Z" fill="black"/>
<path d="M1173.01 540.818H1133.29V262.021L1147.35 247.906L1147.56 247.693L1156.65 238.578L1156.79 238.437C1156.79 238.437 1156.86 238.685 1156.93 238.827C1157.29 239.713 1157.82 241.061 1158.42 242.728C1158.53 243.012 1158.64 243.26 1158.74 243.544C1158.89 243.934 1159.06 244.324 1159.2 244.714C1159.56 245.742 1159.99 246.842 1160.41 247.977C1163.14 255.283 1166.3 263.865 1166.48 264.433C1166.77 265.355 1167.08 266.277 1167.37 267.235C1167.72 268.476 1168.04 269.753 1168.29 271.03C1171.31 284.223 1170.78 299.048 1169.75 311.496C1161.51 412.999 1135.56 471.269 1173.01 540.818Z" fill="#234B4B"/>
<path d="M1179.26 614.09C1175.25 613.983 1171.27 613.877 1167.33 613.664V614.48C1160.16 614.196 1153.74 613.664 1148.8 612.636C1146.67 612.21 1144.83 611.678 1143.34 611.04C1104.72 594.903 1084.7 605.755 1065.39 567.63C1043.24 573.588 1043.81 545.818 1065.39 527.872C1063.3 523.51 1067.24 525.035 1065.39 520.637C1056.3 498.081 1030.68 447.081 1030.68 419.383C1030.68 373.064 1072.13 322.916 1113.17 282.236V560.927H1167.33V608.947C1171.24 610.791 1175.21 612.494 1179.26 614.09Z" fill="#234B4B"/>
<path d="M1156.68 238.046C1156.68 238.046 1156.79 238.294 1156.83 238.436C1156.97 238.897 1157.22 239.606 1157.54 240.528C1150.08 247.338 1141.88 254.821 1133.33 262.836L1156.68 238.046Z" fill="#234B4B"/>
<path d="M1233 614.657C1223.88 613.593 1205.56 614.374 1187.46 614.622V563.835C1198.85 579.759 1213.76 596.499 1233 614.657Z" fill="#234B4B"/>
<path d="M1160.49 247.906C1160.49 247.906 1160.45 247.906 1160.41 247.977C1151.29 256.099 1142.13 264.823 1133.3 274.08V255.354H986.771L868.82 441.23C854.445 418.177 842.66 393.848 833.644 368.88C788.317 243.544 819.269 114.839 882.628 -0.0351562C887.029 1.24161 891.36 2.73118 895.584 4.39807C997.739 45.0064 1107.31 123.634 1156.51 238.153C1156.51 238.153 1156.62 238.401 1156.65 238.543C1156.94 239.182 1157.22 239.855 1157.5 240.494C1157.82 241.203 1158.11 241.948 1158.43 242.693C1158.53 242.976 1158.64 243.225 1158.75 243.508C1158.89 243.899 1159.07 244.289 1159.21 244.679C1159.63 245.743 1160.06 246.807 1160.49 247.871V247.906Z" fill="#234B4B"/>
<path d="M1006.72 439.918V540.818H958.089C954.681 538.158 951.309 535.463 948.008 532.696L1006.72 439.918Z" fill="#234B4B"/>
<path d="M1179.26 614.09C1175.25 613.984 1171.27 613.877 1167.33 613.665C1161.12 613.452 1154.95 613.097 1148.8 612.636C1107.88 609.657 1068.87 601.961 1030.68 584.725C1015.27 577.809 1000.58 569.829 986.591 560.927H1026.77V376.079H1023.29L932.709 519.148C913.294 501.061 895.936 480.987 880.922 459.601L997.808 275.463H1113.17V296.671C1081.43 335.116 1057.19 380.442 1057.19 428.356C1057.19 485.172 1077.85 536.562 1115.4 573.056C1130.6 587.846 1148.13 599.904 1167.33 608.912C1171.24 610.756 1175.21 612.459 1179.26 614.055V614.09Z" fill="#234B4B"/>
<path d="M1167.33 614.48V613.665C1171.27 613.877 1175.25 613.984 1179.26 614.09C1175.21 612.494 1171.24 610.792 1167.33 608.948V560.927H1113.17V275.463H997.806L880.921 459.601C876.697 453.572 872.615 447.437 868.781 441.23L813.196 528.795L795.59 556.565V564.048C799.104 569.261 802.369 574.652 805.387 580.22C809.256 587.314 812.699 594.655 815.716 602.209V634.66H825.796C827.287 641.222 828.423 647.925 829.239 654.734H1004.87V731.376H1133.22V654.734H1187.39V614.622C1180.47 614.693 1173.58 614.693 1167.26 614.48H1167.33ZM1023.33 376.079H1026.81V560.927H986.625C976.722 554.685 967.21 547.947 958.087 540.818H942.86L948.007 532.696C942.789 528.334 937.677 523.83 932.744 519.148L1023.33 376.079Z" fill="black"/>
<path d="M1006.72 439.918L948.01 532.696C951.311 535.463 954.683 538.158 958.091 540.818H1006.72V439.918ZM948.01 532.696C942.792 528.334 937.681 523.83 932.747 519.149L908.539 557.416V560.927H986.629C976.725 554.685 967.213 547.947 958.091 540.818H942.863L948.01 532.696Z" fill="#234B4B"/>
<path d="M1113.2 560.927V275.463H997.845L880.959 459.601L815.754 562.381V634.66H1025.03V711.302H1113.17V634.66H1167.33V560.927H1113.17H1113.2ZM958.125 540.818H942.898L948.045 532.696C942.827 528.334 937.716 523.83 932.782 519.148L1023.37 376.079H1026.84V560.927H986.664C976.761 554.685 967.248 547.947 958.125 540.818ZM1006.75 439.918L948.045 532.696C951.346 535.463 954.718 538.158 958.125 540.818H1006.75V439.918Z" fill="black"/>
</g>
<defs>
<clipPath id="clip0_105_131">
<rect width="1233" height="892" fill="white"/>
</clipPath>
</defs>
</svg>
