<svg width="789" height="789" viewBox="0 0 789 789" fill="none" xmlns="http://www.w3.org/2000/svg">
<path d="M521.976 216.984L522.031 217.029L522.091 217.068L594.015 264.6C632.072 289.75 647.673 337.879 631.608 380.573L600.884 462.224L600.859 462.291L600.84 462.359L578.458 545.789C566.526 590.266 525.169 620.382 479.177 618.087L394.572 613.865L394.5 613.861L394.427 613.865L309.822 618.087C263.83 620.382 222.473 590.266 210.541 545.789L188.159 462.359L188.14 462.291L188.115 462.224L157.391 380.573C141.326 337.879 156.927 289.75 194.984 264.6L266.908 217.068L266.968 217.029L267.024 216.984L332.813 163.461C368.743 134.23 420.256 134.23 456.186 163.461L521.976 216.984Z" stroke="#9B7D5A" stroke-width="2.90074"/>
<path d="M386.912 176.385L386.984 176.387L387.055 176.382L473.044 170.303C518.51 167.089 560.189 195.648 573.538 239.163L599.157 322.677L599.177 322.745L599.205 322.81L632.443 402.459C650.18 444.964 635.781 494.049 597.884 520.266L528.563 568.222L528.504 568.263L528.448 568.31L464.272 622.936C429.187 652.799 377.966 654.137 341.339 626.147L272.704 573.698L272.648 573.655L272.588 573.618L198.261 527.532C159.532 503.518 142.536 455.993 157.279 412.941L185.164 331.518L185.187 331.45L185.204 331.38L204.49 249.28C215.094 204.138 256.036 172.678 302.466 173.993L386.912 176.385Z" stroke="#9B7D5A" stroke-width="2.90074"/>
</svg>
