<svg width="261" height="299" viewBox="0 0 261 299" fill="none" xmlns="http://www.w3.org/2000/svg">
<path d="M260.99 213.34C260.99 264.65 226.52 298.56 184 298.56C180.63 298.56 177.31 298.35 174.05 297.93C166.49 296.96 159.26 294.88 152.55 291.79C136.58 284.47 123.5 271.47 115.52 254.17C115.44 254 115.37 253.83 115.29 253.66C114.41 251.72 113.59 249.73 112.85 247.69C109.09 237.45 107.02 225.92 107.02 213.34C107.02 184.3 126.26 157.17 146.02 137.35C146.03 137.33 146.04 137.31 146.06 137.31C161.21 122.1 176.67 111.2 184 107.03C198.09 115.69 260.99 162.02 260.99 213.34Z" fill="#92C0C8"/>
<path d="M174.05 297.93C166.49 296.96 159.26 294.88 152.55 291.79C136.58 284.47 123.5 271.47 115.52 254.17C115.44 254 115.37 253.83 115.29 253.66C114.42 251.68 113.61 249.69 112.85 247.69C109.09 237.45 107.02 225.92 107.02 213.34C107.02 184.3 126.26 157.17 146.02 137.35C146.21 137.85 146.38 138.35 146.54 138.87C146.67 139.29 146.8 139.72 146.91 140.15C147.06 140.72 147.19 141.29 147.3 141.87C148.54 147.87 148.32 154.59 147.9 160.25C143.38 221.43 125.94 248.07 174.05 297.93Z" fill="#234B4B"/>
<path d="M151.841 297.9C130.231 297.34 110.071 294.3 90.4007 284.56C51.1107 265.13 22.4507 227.71 8.90068 186.55C-9.83932 129.63 2.96068 71.16 29.1607 19C30.9807 19.58 32.7607 20.26 34.5207 21.02C77.9307 39.97 124.651 77.18 144.081 131.59C122.851 152.36 101.361 181.66 101.361 213.55C101.361 239.35 109.911 262.69 125.441 279.28C133.001 287.36 141.961 293.64 151.841 297.9Z" fill="#234B4B"/>
<path d="M184 97.64C210.963 97.64 232.82 75.7825 232.82 48.82C232.82 21.8575 210.963 0 184 0C157.037 0 135.18 21.8575 135.18 48.82C135.18 75.7825 157.037 97.64 184 97.64Z" fill="#9A7A3F"/>
</svg>
