<svg width="172" height="282" viewBox="0 0 172 282" fill="none" xmlns="http://www.w3.org/2000/svg">
<path d="M171.93 281.99C166.23 282 120.16 279.42 104.9 271.83C100.26 270.25 95.6601 268.34 91.0901 266.08C51.8001 246.65 23.1401 209.23 9.59013 168.07C-9.14987 111.15 3.65014 52.68 29.8501 0.52002C31.6701 1.10002 33.4501 1.78001 35.2101 2.54001C78.6201 21.49 125.34 58.7 144.77 113.11C144.65 113.23 144.52 113.35 144.4 113.47C144.4 113.49 144.4 113.51 144.42 113.53C144.55 113.95 144.68 114.38 144.79 114.81C144.94 115.38 145.07 115.95 145.18 116.53C146.42 122.53 146.2 129.25 145.78 134.91C141.26 196.09 123.82 232.13 171.93 281.99Z" fill="#234B4B"/>
</svg>
